<svg width="80" height="80" viewBox="0 0 80 80" fill="none" xmlns="http://www.w3.org/2000/svg">
<path d="M61.1719 16.4648C61.1719 15.4878 60.5658 14.6133 59.6511 14.2703L21.9948 0.149206C21.2753 -0.120637 20.4688 -0.0204812 19.8369 0.417331C19.2052 0.855144 18.8281 1.57499 18.8281 2.34374V77.6562H61.1719V16.4648Z" fill="#00CBF2"/>
<path d="M59.6511 14.2703L40 6.90112V77.6563H61.1719V16.4649C61.1719 15.4878 60.5658 14.6133 59.6511 14.2703Z" fill="#0093FF"/>
<path d="M44.707 18.8086H30.5859C29.2916 18.8086 28.2422 17.7592 28.2422 16.4648C28.2422 15.1705 29.2916 14.1211 30.5859 14.1211H44.707C46.0014 14.1211 47.0508 15.1705 47.0508 16.4648C47.0508 17.7592 46.0014 18.8086 44.707 18.8086Z" fill="#1D356F"/>
<path d="M49.4141 28.2227H30.5859C29.2916 28.2227 28.2422 27.1733 28.2422 25.8789C28.2422 24.5845 29.2916 23.5352 30.5859 23.5352H49.4141C50.7084 23.5352 51.7578 24.5845 51.7578 25.8789C51.7578 27.1733 50.7084 28.2227 49.4141 28.2227Z" fill="#1D356F"/>
<path d="M49.4141 47.0508H40C38.7056 47.0508 37.6562 46.0014 37.6562 44.707C37.6562 43.4127 38.7056 42.3633 40 42.3633H49.4141C50.7084 42.3633 51.7578 43.4127 51.7578 44.707C51.7578 46.0014 50.7084 47.0508 49.4141 47.0508Z" fill="#1D356F"/>
<path d="M31.8945 37.6367H30.5859C29.2916 37.6367 28.2422 36.5873 28.2422 35.293C28.2422 33.9986 29.2916 32.9492 30.5859 32.9492H31.8945C33.1889 32.9492 34.2383 33.9986 34.2383 35.293C34.2383 36.5873 33.1889 37.6367 31.8945 37.6367Z" fill="#1D356F"/>
<path d="M49.1406 37.6367H42.3438C41.0494 37.6367 40 36.5873 40 35.293C40 33.9986 41.0494 32.9492 42.3438 32.9492H49.1406C50.435 32.9492 51.4844 33.9986 51.4844 35.293C51.4844 36.5873 50.435 37.6367 49.1406 37.6367Z" fill="#021E57"/>
<path d="M44.707 78.4375C43.4127 78.4375 42.3633 77.3881 42.3633 76.0938V66.6797C42.3633 65.3853 43.4127 64.3359 44.707 64.3359C46.0014 64.3359 47.0508 65.3853 47.0508 66.6797V76.0938C47.0508 77.3881 46.0014 78.4375 44.707 78.4375Z" fill="#966857"/>
<path d="M44.707 14.1211H40V18.8086H44.707C46.0014 18.8086 47.0508 17.7592 47.0508 16.4648C47.0508 15.1705 46.0014 14.1211 44.707 14.1211Z" fill="#021E57"/>
<path d="M49.4141 23.5352H40V28.2227H49.4141C50.7084 28.2227 51.7578 27.1733 51.7578 25.8789C51.7578 24.5845 50.7084 23.5352 49.4141 23.5352Z" fill="#021E57"/>
<path d="M49.4141 42.3633H40V47.0508H49.4141C50.7084 47.0508 51.7578 46.0014 51.7578 44.707C51.7578 43.4127 50.7084 42.3633 49.4141 42.3633Z" fill="#021E57"/>
<path d="M32.9427 44.6875V54.1145L21.1719 57.5L9.40112 54.1145V44.6875C9.40112 43.3931 10.4505 42.3438 11.7449 42.3438H30.5991C31.8935 42.3438 32.9427 43.3931 32.9427 44.6875Z" fill="#1D356F"/>
<path d="M30.5989 42.3438H21.1719V57.5L32.9427 54.1145V44.6875C32.9427 43.3931 31.8934 42.3438 30.5989 42.3438Z" fill="#021E57"/>
<path d="M32.9427 54.1145V65.8853L21.1719 68.2422L9.40112 65.8853V54.1145H32.9427Z" fill="#1D356F"/>
<path d="M9.40112 65.8853H32.9428V77.6561H9.40112V65.8853Z" fill="#1D356F"/>
<path d="M65.8984 67.8906H70.5859V77.6562H65.8984V67.8906Z" fill="#966857"/>
<path d="M68.2422 67.8906H70.5859V77.6562H68.2422V67.8906Z" fill="#805142"/>
<path d="M21.1719 65.8855H32.9427V77.6563H21.1719V65.8855Z" fill="#021E57"/>
<path d="M9.41406 67.8906H14.1016V77.6562H9.41406V67.8906Z" fill="#966857"/>
<path d="M11.7578 67.8906H14.1016V77.6562H11.7578V67.8906Z" fill="#805142"/>
<path d="M47.0508 76.0938V66.6797C47.0508 65.3853 46.0014 64.3359 44.707 64.3359V78.4375C46.0014 78.4375 47.0508 77.3881 47.0508 76.0938Z" fill="#805142"/>
<path d="M44.707 70.5859C40.8192 70.5859 37.6562 67.423 37.6562 63.5352C37.6562 59.6473 40.8192 56.4844 44.707 56.4844C48.5948 56.4844 51.7578 59.6473 51.7578 63.5352C51.7578 67.423 48.5948 70.5859 44.707 70.5859Z" fill="#C8E364"/>
<path d="M44.707 56.4844V70.5859C48.5948 70.5859 51.7578 67.423 51.7578 63.5352C51.7578 59.6473 48.5948 56.4844 44.707 56.4844Z" fill="#3CD380"/>
<path d="M77.6562 80H2.34375C1.04937 80 0 78.9506 0 77.6562C0 76.3619 1.04937 75.3125 2.34375 75.3125H77.6562C78.9506 75.3125 80 76.3619 80 77.6562C80 78.9506 78.9506 80 77.6562 80Z" fill="#C8E364"/>
<path d="M77.6562 75.3125H40V80H77.6562C78.9506 80 80 78.9506 80 77.6562C80 76.3619 78.9506 75.3125 77.6562 75.3125Z" fill="#3CD380"/>
<path d="M75.1544 41.7095C72.8141 35.2089 70.4422 29.2675 70.4184 29.2081C70.0627 28.3181 69.2008 27.7344 68.2422 27.7344C67.2836 27.7344 66.4217 28.3181 66.0659 29.2081C66.0422 29.2673 63.6702 35.2088 61.33 41.7095C56.4844 55.1695 56.4844 57.9231 56.4844 58.8281C56.4844 65.3114 61.7589 70.5859 68.2422 70.5859C74.7255 70.5859 80 65.3114 80 58.8281C80 57.9231 80 55.1695 75.1544 41.7095V41.7095Z" fill="#C8E364"/>
<path d="M80 58.8281C80 57.9231 80 55.1695 75.1544 41.7095C72.8141 35.2089 70.4422 29.2675 70.4184 29.2081C70.0627 28.3181 69.2008 27.7344 68.2422 27.7344V70.5859C74.7255 70.5859 80 65.3114 80 58.8281Z" fill="#3CD380"/>
<path d="M18.67 41.7095C16.3297 35.2089 13.9578 29.2675 13.9341 29.2081C13.5783 28.3181 12.7164 27.7344 11.7578 27.7344C10.7992 27.7344 9.93734 28.3181 9.58156 29.2081C9.55781 29.2673 7.18578 35.2088 4.84562 41.7095C0 55.1695 0 57.9231 0 58.8281C0 65.3114 5.27453 70.5859 11.7578 70.5859C18.2411 70.5859 23.5156 65.3114 23.5156 58.8281C23.5156 57.9231 23.5156 55.1695 18.67 41.7095V41.7095Z" fill="#C8E364"/>
<path d="M23.5156 58.8281C23.5156 57.9231 23.5156 55.1695 18.67 41.7095C16.3297 35.2089 13.9578 29.2675 13.9341 29.2081C13.5783 28.3181 12.7164 27.7344 11.7578 27.7344V70.5859C18.2411 70.5859 23.5156 65.3114 23.5156 58.8281Z" fill="#3CD380"/>
</svg>
