<svg width="80" height="80" viewBox="0 0 80 80" fill="none" xmlns="http://www.w3.org/2000/svg">
<path d="M68.1877 25.7479H51.6691V55.6871H78.7335V42.2115L75.5771 31.3024C74.6256 28.0127 71.6124 25.7479 68.1877 25.7479Z" fill="#FF7058"/>
<path d="M74.782 42.0732L71.9689 32.349C71.484 30.6774 69.9291 29.5075 68.1875 29.5075H55.4286V42.0732H74.782Z" fill="#84DBFF"/>
<path d="M74.7854 42.0682H55.4221V29.5025L74.7854 42.0682Z" fill="#CDD6E0"/>
<path d="M74.782 42.0732L71.9689 32.349C71.484 30.6774 69.9291 29.5075 68.1875 29.5075H55.4286L74.782 42.0732Z" fill="#F2F2F2"/>
<path d="M4.99958 10.7174H46.6694C49.4291 10.7174 51.6689 12.9555 51.6689 15.717V55.6853H0V15.717C0 12.9557 2.23809 10.7174 4.99958 10.7174Z" fill="#FFD15C"/>
<path d="M33.8641 10.7258V23.9363L31.9308 22.0032L29.9044 24.0297L27.8796 22.0032L25.8547 24.0297L23.8265 22.0032L21.7751 24.0297L19.7518 22.0032L17.7954 23.9597V10.7258H33.8641Z" fill="#F2F2F2"/>
<path d="M80 55.6835V61.3331H0.00671387V55.6835H8.35601C10.3058 52.1838 14.0555 49.8173 18.3552 49.8173C22.6381 49.8173 26.3878 52.1838 28.3543 55.6835H55.2188C57.1686 52.1838 60.9 49.8173 65.1997 49.8173C69.4993 49.8173 73.2323 52.1838 75.1988 55.6835H80Z" fill="#334A5E"/>
<path d="M73.1839 61.2981C73.1839 65.7077 69.6092 69.2824 65.1996 69.2824C60.79 69.2824 57.2186 65.7077 57.2186 61.2981C57.2186 56.8885 60.7915 53.3138 65.1996 53.3138C69.611 53.3138 73.1839 56.8885 73.1839 61.2981Z" fill="#40596B"/>
<path d="M68.4092 61.2981C68.4092 63.0697 66.9726 64.5046 65.2027 64.5046C63.4311 64.5046 61.993 63.0697 61.993 61.2981C61.993 59.5266 63.4296 58.0917 65.2027 58.0917C66.9726 58.0901 68.4092 59.5267 68.4092 61.2981Z" fill="#ACB3BA"/>
<path d="M26.3328 61.2981C26.3328 65.7077 22.7564 69.2824 18.3485 69.2824C13.9388 69.2824 10.3641 65.7077 10.3641 61.2981C10.3641 56.8885 13.9388 53.3138 18.3485 53.3138C22.7564 53.3138 26.3328 56.8885 26.3328 61.2981Z" fill="#40596B"/>
<path d="M21.5546 61.2981C21.5546 63.0697 20.1197 64.5046 18.3481 64.5046C16.5766 64.5046 15.1401 63.0697 15.1401 61.2981C15.1401 59.5266 16.5767 58.0917 18.3481 58.0917C20.1196 58.0917 21.5546 59.5267 21.5546 61.2981Z" fill="#ACB3BA"/>
</svg>
