<svg width="80" height="80" viewBox="0 0 80 80" fill="none" xmlns="http://www.w3.org/2000/svg">
<g clip-path="url(#clip0)">
<path d="M14.2643 73.509H65.736C67.8598 58.0842 68.6419 42.5581 68.0827 27.0587C67.5376 11.9544 55.1144 0 40.0002 0C24.886 0 12.4628 11.9544 11.9177 27.0587C11.3583 42.558 12.1406 58.0842 14.2643 73.509Z" fill="url(#paint0_linear)"/>
<path d="M76.3535 72.7106C78.3621 74.9718 76.9298 78.5537 73.9163 78.8121C65.2842 79.5519 53.855 80 41.316 80C27.4363 80 14.9171 79.4507 6.04699 78.5669C3.07004 78.2703 1.64197 74.714 3.64432 72.4913C3.65938 72.4745 3.67444 72.4579 3.6895 72.4411C12.6031 62.5379 25.5243 56.3123 39.8983 56.3123C54.1179 56.3123 66.9057 62.3975 75.8123 72.1111C75.9943 72.3095 76.1747 72.5093 76.3535 72.7106Z" fill="url(#paint1_linear)"/>
<path d="M73.9169 78.8125C65.8244 79.5058 55.2722 79.9435 43.6518 79.9953L43.6503 79.9937H43.6487L22.9852 59.3302C28.2542 57.3788 33.9514 56.3121 39.8981 56.3121C54.1177 56.3121 66.9052 62.3968 75.8118 72.1113C75.9938 72.309 76.1742 72.5098 76.353 72.7106C78.3624 74.9725 76.9303 78.5537 73.9169 78.8125V78.8125Z" fill="url(#paint2_linear)"/>
<path d="M18.1382 44.0662C15.493 44.0662 13.3485 41.9219 13.3485 39.2766V36.4283C13.3485 33.7831 15.4928 31.6386 18.1382 31.6386C20.7833 31.6386 22.9278 33.7829 22.9278 36.4283V39.2767C22.9278 41.9219 20.7833 44.0662 18.1382 44.0662Z" fill="url(#paint3_linear)"/>
<path d="M61.8619 44.0662C59.2167 44.0662 57.0723 41.9219 57.0723 39.2766V36.4283C57.0723 33.7831 59.2166 31.6386 61.8619 31.6386C64.5071 31.6386 66.6516 33.7829 66.6516 36.4283V39.2767C66.6514 41.9219 64.5071 44.0662 61.8619 44.0662Z" fill="url(#paint4_linear)"/>
<path d="M39.9998 67.2287C51.9672 67.2287 61.8121 57.7672 62.2444 45.8076C62.4298 40.68 62.4298 35.5487 62.2444 30.4211C61.8119 18.4616 51.9672 9.00012 39.9998 9.00012C28.0326 9.00012 18.1878 18.4616 17.7555 30.4211C17.57 35.5488 17.57 40.6801 17.7555 45.8076C18.1878 57.767 28.0325 67.2287 39.9998 67.2287V67.2287Z" fill="url(#paint5_linear)"/>
<path d="M40 9.00012C28.0328 9.00012 18.1879 18.4616 17.7556 30.4211C17.6894 32.2542 17.6478 42.1676 17.6288 44.0014H62.3711C62.3523 42.1676 62.3107 32.2544 62.2444 30.4213C61.8121 18.4616 51.9674 9.00012 40 9.00012V9.00012Z" fill="url(#paint6_linear)"/>
<path d="M67.895 31.6386C67.8669 30.178 67.8278 28.7176 67.7758 27.2576C67.2413 12.2841 54.983 0.40564 39.9999 0.40564C25.0589 0.40564 12.7678 12.2183 12.228 27.1495C12.1814 28.4361 12.1469 31.1354 12.1191 32.4223L38.5508 28.7918C45.076 27.8957 50.9776 24.4439 54.9577 19.1961L57.7697 28.2557C58.2867 29.9216 59.6653 31.1768 61.3723 31.5357C61.6976 31.6041 62.0293 31.6386 62.3618 31.6386H67.895Z" fill="url(#paint7_linear)"/>
<path d="M58.6911 7.64142C58.2313 13.5087 54.9576 19.1961 54.9576 19.1961L57.7695 28.2557C58.2865 29.9216 59.6652 31.1768 61.3722 31.5357C61.6975 31.6041 62.0291 31.6386 62.3617 31.6386H67.8948C67.8668 30.178 67.8277 28.7177 67.7756 27.2576C67.4978 19.469 64.0467 12.5191 58.6911 7.64142Z" fill="url(#paint8_linear)"/>
<path d="M41.3725 49.464H38.6276C36.4279 49.464 34.714 47.8422 34.9493 45.9833L36.3844 34.6438H43.6155L45.0506 45.9833C45.2861 47.8422 43.5724 49.464 41.3725 49.464Z" fill="url(#paint9_linear)"/>
<path d="M47.0475 55.5473C47.0179 54.8154 46.5849 54.2305 45.8983 54.0452C42.0521 53.0074 37.9476 53.0074 34.1015 54.0452C33.4149 54.2305 32.9821 54.8152 32.9523 55.5473C32.8373 58.3781 33.5133 60.7015 34.7641 62.606C35.0177 62.992 35.4852 63.2767 35.9992 63.3628C38.6869 63.8132 41.3128 63.8132 44.0005 63.3628C44.5145 63.2767 44.9821 62.992 45.2356 62.606C46.4867 60.7015 47.1625 58.3781 47.0475 55.5473Z" fill="url(#paint10_linear)"/>
<path d="M44.9458 60.3712C45.2191 60.79 45.0242 61.4537 44.6142 61.5015C43.4399 61.6386 41.8851 61.7216 40.1792 61.7216C38.291 61.7216 36.588 61.6198 35.3812 61.4562C34.9762 61.4013 34.782 60.7425 35.0543 60.3307C35.0564 60.3276 35.0584 60.3246 35.0605 60.3214C36.273 58.4869 38.0308 57.3337 39.9863 57.3337C41.9207 57.3337 43.6603 58.4609 44.8719 60.2604C44.8969 60.2968 44.9213 60.3338 44.9458 60.3712Z" fill="url(#paint11_linear)"/>
<path d="M33.7062 36.8791C33.7049 36.8822 33.7036 36.8852 33.7024 36.8883C33.0257 38.5275 31.2034 40.5123 26.3661 40.6582C25.6302 40.6805 25.0156 40.1018 24.9935 39.366C24.9716 38.63 25.5499 38.0155 26.2858 37.9934C28.1687 37.9366 30.5563 37.5222 31.2381 35.8709C31.519 35.1903 32.2985 34.8665 32.9789 35.1474C33.6563 35.427 33.9803 36.2008 33.7062 36.8791Z" fill="url(#paint12_linear)"/>
<path d="M46.2934 36.8791C46.2947 36.8822 46.2959 36.8852 46.2972 36.8883C46.9739 38.5275 48.7962 40.5123 53.6335 40.6582C54.3694 40.6805 54.9839 40.1018 55.0061 39.366C55.028 38.63 54.4497 38.0155 53.7138 37.9934C51.8308 37.9366 49.4432 37.5222 48.7615 35.8709C48.4806 35.1903 47.7011 34.8665 47.0206 35.1474C46.3432 35.427 46.0192 36.2008 46.2934 36.8791V36.8791Z" fill="url(#paint13_linear)"/>
<path d="M8.97062 15.1893C8.15572 14.8181 7.47666 14.1497 7.09768 13.2595C7.09721 13.2584 7.09674 13.257 7.09611 13.2559C7.04953 13.1505 6.93235 13.0983 6.82239 13.1336C4.98129 13.7301 3.02145 12.8369 2.26396 11.0556C1.88702 10.1696 2.29988 9.14564 3.186 8.76885C4.07227 8.39207 5.09611 8.80462 5.47306 9.69105C5.5187 9.79835 5.63682 9.85246 5.74804 9.81623C7.58898 9.21999 9.54851 10.113 10.3062 11.8934C10.3068 11.8948 10.3073 11.8959 10.3079 11.8973C10.3546 12.0024 10.4715 12.0548 10.5813 12.0192C10.6433 11.9991 10.7063 11.9827 10.77 11.9696C11.7134 11.777 12.6348 12.3858 12.8274 13.3293C13.0092 14.2209 12.476 15.0922 11.6208 15.3477C10.7115 15.6329 9.77486 15.5557 8.97062 15.1893Z" fill="url(#paint14_linear)"/>
<path d="M13.932 10.1038C12.3684 9.39135 11.4884 7.69676 11.8508 5.97017C11.8516 5.96672 11.8522 5.96343 11.8528 5.96029C11.877 5.84609 11.8109 5.73613 11.6997 5.6999C9.84748 5.1319 8.75792 3.2748 9.16011 1.38178C9.36011 0.439977 10.2859 -0.161435 11.2279 0.0385647C12.1694 0.237624 12.7711 1.16437 12.5711 2.10617C12.5468 2.22068 12.613 2.33127 12.7242 2.36704C14.5716 2.93237 15.6624 4.78617 15.2655 6.67606C15.2649 6.67919 15.2643 6.68202 15.2636 6.68515C15.2395 6.79904 15.3047 6.91041 15.4163 6.94539C16.3287 7.22539 16.8472 8.18664 16.5778 9.10351C16.3065 10.0274 15.338 10.5565 14.4142 10.2852C14.4072 10.2831 14.399 10.2806 14.392 10.2786C14.2331 10.2293 14.0793 10.171 13.932 10.1038V10.1038Z" fill="url(#paint15_linear)"/>
<path d="M1.02189 23.3477C0.908162 23.2958 0.798201 23.231 0.694201 23.1526C-0.0747398 22.5729 -0.228308 21.4796 0.351299 20.7108C1.51632 19.1654 3.63444 18.7708 5.27632 19.7946C5.37671 19.8558 5.50314 19.8324 5.57342 19.7394C5.57546 19.7366 5.5775 19.7337 5.57953 19.7312C6.74565 18.1926 8.85828 17.8026 10.498 18.8227C10.5042 18.8266 10.5105 18.8307 10.5166 18.8346C11.3276 19.3538 11.5646 20.4324 11.0454 21.2434C10.5297 22.049 9.4622 22.2862 8.65295 21.7817C8.55381 21.7191 8.42785 21.7461 8.3582 21.8382C8.35616 21.8409 8.35428 21.8435 8.35224 21.8462C7.18612 23.3852 5.07334 23.7781 3.43318 22.7548C3.33483 22.6948 3.20636 22.7169 3.13608 22.8101C2.63459 23.4746 1.74926 23.6793 1.02189 23.3477V23.3477Z" fill="url(#paint16_linear)"/>
<path d="M71.0293 15.1893C71.8442 14.8182 72.5232 14.1498 72.9022 13.2596C72.9027 13.2585 72.9031 13.2571 72.9038 13.256C72.9504 13.1506 73.0675 13.0983 73.1775 13.1336C75.0186 13.7302 76.9784 12.837 77.7359 11.0557C78.1129 10.1697 77.7 9.14572 76.8139 8.76894C75.9279 8.39215 74.9041 8.80455 74.5272 9.69113C74.4815 9.79843 74.3634 9.85255 74.2522 9.81631C72.4112 9.22007 70.4517 10.1131 69.694 11.8935C69.6934 11.8949 69.693 11.896 69.6923 11.8974C69.6456 12.0025 69.5287 12.0549 69.4189 12.0193C69.357 11.9992 69.2939 11.9827 69.2302 11.9697C68.2868 11.7771 67.3654 12.3859 67.1728 13.3294C66.991 14.221 67.5242 15.0922 68.3794 15.3478C69.2884 15.6329 70.225 15.5558 71.0293 15.1893V15.1893Z" fill="url(#paint17_linear)"/>
<path d="M66.0678 10.1038C67.6314 9.39135 68.5114 7.69676 68.1492 5.97017C68.1484 5.96672 68.1478 5.96343 68.1472 5.96029C68.123 5.84609 68.1891 5.73613 68.3003 5.6999C70.1525 5.1319 71.2421 3.2748 70.8399 1.38178C70.6399 0.439977 69.7141 -0.161435 68.7721 0.0385647C67.8306 0.237624 67.2289 1.16437 67.4289 2.10617C67.4532 2.22068 67.387 2.33127 67.2758 2.36704C65.4285 2.93237 64.3376 4.78617 64.7345 6.67606C64.7351 6.67919 64.7357 6.68202 64.7364 6.68515C64.7605 6.79904 64.6953 6.91041 64.5837 6.94539C63.6713 7.22539 63.1528 8.18664 63.4222 9.10351C63.6936 10.0274 64.662 10.5565 65.5858 10.2852C65.5928 10.2831 65.601 10.2806 65.6081 10.2786C65.767 10.2293 65.9205 10.171 66.0678 10.1038V10.1038Z" fill="url(#paint18_linear)"/>
<path d="M78.9779 23.3477C79.0916 23.2958 79.2016 23.231 79.3056 23.1526C80.0745 22.5729 80.2281 21.4796 79.6485 20.7108C78.4835 19.1654 76.3654 18.7708 74.7235 19.7946C74.6231 19.8558 74.4966 19.8324 74.4264 19.7394C74.4243 19.7366 74.4223 19.7337 74.4203 19.7312C73.2541 18.1926 71.1415 17.8026 69.5018 18.8227C69.4956 18.8266 69.4893 18.8307 69.4832 18.8346C68.6722 19.3538 68.4352 20.4324 68.9544 21.2434C69.4701 22.049 70.5376 22.2862 71.3468 21.7817C71.446 21.7191 71.5719 21.7461 71.6416 21.8382C71.6436 21.8409 71.6457 21.8435 71.6475 21.8462C72.8137 23.3852 74.9265 23.7781 76.5666 22.7548C76.665 22.6948 76.7934 22.7169 76.8637 22.8101C77.3652 23.4746 78.2505 23.6793 78.9779 23.3477V23.3477Z" fill="url(#paint19_linear)"/>
</g>
<defs>
<linearGradient id="paint0_linear" x1="20.7937" y1="10.8657" x2="37.7349" y2="40.9834" gradientUnits="userSpaceOnUse">
<stop stop-color="#8A7889"/>
<stop offset="1" stop-color="#6E566E"/>
</linearGradient>
<linearGradient id="paint1_linear" x1="39.9999" y1="67.8907" x2="39.9999" y2="80.4245" gradientUnits="userSpaceOnUse">
<stop stop-color="#FF637B"/>
<stop offset="1" stop-color="#E63950"/>
</linearGradient>
<linearGradient id="paint2_linear" x1="58.3938" y1="82.6036" x2="43.6487" y2="54.3683" gradientUnits="userSpaceOnUse">
<stop stop-color="#E63950" stop-opacity="0"/>
<stop offset="0.0467" stop-color="#E4354B" stop-opacity="0.047"/>
<stop offset="0.4669" stop-color="#D31822" stop-opacity="0.467"/>
<stop offset="0.7991" stop-color="#C90709" stop-opacity="0.799"/>
<stop offset="1" stop-color="#C50000"/>
</linearGradient>
<linearGradient id="paint3_linear" x1="18.1382" y1="23.6341" x2="18.1382" y2="43.8105" gradientUnits="userSpaceOnUse">
<stop stop-color="#FCE9CB"/>
<stop offset="1" stop-color="#FFBD95"/>
</linearGradient>
<linearGradient id="paint4_linear" x1="61.8619" y1="23.6341" x2="61.8619" y2="43.8105" gradientUnits="userSpaceOnUse">
<stop stop-color="#FCE9CB"/>
<stop offset="1" stop-color="#FFBD95"/>
</linearGradient>
<linearGradient id="paint5_linear" x1="29.2301" y1="21.1055" x2="48.5591" y2="51.632" gradientUnits="userSpaceOnUse">
<stop stop-color="#FCE9CB"/>
<stop offset="1" stop-color="#FFBD95"/>
</linearGradient>
<linearGradient id="paint6_linear" x1="40" y1="46.9541" x2="40" y2="2.0213" gradientUnits="userSpaceOnUse">
<stop stop-color="#F9DBB7" stop-opacity="0"/>
<stop offset="0.0209" stop-color="#F7D2B0" stop-opacity="0.021"/>
<stop offset="0.1667" stop-color="#EA9B82" stop-opacity="0.167"/>
<stop offset="0.3134" stop-color="#DF6C5A" stop-opacity="0.313"/>
<stop offset="0.4582" stop-color="#D5453A" stop-opacity="0.458"/>
<stop offset="0.6006" stop-color="#CE2720" stop-opacity="0.601"/>
<stop offset="0.7399" stop-color="#C9110E" stop-opacity="0.74"/>
<stop offset="0.8747" stop-color="#C60404" stop-opacity="0.875"/>
<stop offset="1" stop-color="#C50000"/>
</linearGradient>
<linearGradient id="paint7_linear" x1="28.594" y1="6.47795" x2="45.5351" y2="36.5956" gradientUnits="userSpaceOnUse">
<stop stop-color="#8A7889"/>
<stop offset="1" stop-color="#6E566E"/>
</linearGradient>
<linearGradient id="paint8_linear" x1="62.3789" y1="20.1638" x2="52.3397" y2="25.9155" gradientUnits="userSpaceOnUse">
<stop stop-color="#6E566E" stop-opacity="0"/>
<stop offset="0.2944" stop-color="#674D66" stop-opacity="0.294"/>
<stop offset="1" stop-color="#593B56"/>
</linearGradient>
<linearGradient id="paint9_linear" x1="40.0001" y1="37.1864" x2="40.0001" y2="65.6487" gradientUnits="userSpaceOnUse">
<stop stop-color="#FAA68E" stop-opacity="0"/>
<stop offset="1" stop-color="#C9766E"/>
</linearGradient>
<linearGradient id="paint10_linear" x1="41.4215" y1="62.4374" x2="39.147" y2="53.104" gradientUnits="userSpaceOnUse">
<stop stop-color="#FF637B"/>
<stop offset="1" stop-color="#E63950"/>
</linearGradient>
<linearGradient id="paint11_linear" x1="40.0002" y1="57.8301" x2="40.0002" y2="61.8562" gradientUnits="userSpaceOnUse">
<stop stop-color="#FF9690"/>
<stop offset="1" stop-color="#F9545B"/>
</linearGradient>
<linearGradient id="paint12_linear" x1="28.4279" y1="36.7075" x2="30.7805" y2="39.6005" gradientUnits="userSpaceOnUse">
<stop stop-color="#8A7889"/>
<stop offset="1" stop-color="#6E566E"/>
</linearGradient>
<linearGradient id="paint13_linear" x1="51.5635" y1="36.6356" x2="49.2107" y2="39.5285" gradientUnits="userSpaceOnUse">
<stop stop-color="#8A7889"/>
<stop offset="1" stop-color="#6E566E"/>
</linearGradient>
<linearGradient id="paint14_linear" x1="5.39043" y1="7.69863" x2="9.58312" y2="16.3611" gradientUnits="userSpaceOnUse">
<stop stop-color="#FFDA2D"/>
<stop offset="1" stop-color="#FDBF00"/>
</linearGradient>
<linearGradient id="paint15_linear" x1="13.66" y1="0.42604" x2="12.1224" y2="9.92459" gradientUnits="userSpaceOnUse">
<stop stop-color="#FFDA2D"/>
<stop offset="1" stop-color="#FDBF00"/>
</linearGradient>
<linearGradient id="paint16_linear" x1="2.62193" y1="24.7017" x2="8.77969" y2="17.3102" gradientUnits="userSpaceOnUse">
<stop stop-color="#FFDA2D"/>
<stop offset="1" stop-color="#FDBF00"/>
</linearGradient>
<linearGradient id="paint17_linear" x1="74.6198" y1="7.68158" x2="70.427" y2="16.3441" gradientUnits="userSpaceOnUse">
<stop stop-color="#FFDA2D"/>
<stop offset="1" stop-color="#FDBF00"/>
</linearGradient>
<linearGradient id="paint18_linear" x1="66.3427" y1="0.42515" x2="67.8802" y2="9.92383" gradientUnits="userSpaceOnUse">
<stop stop-color="#FFDA2D"/>
<stop offset="1" stop-color="#FDBF00"/>
</linearGradient>
<linearGradient id="paint19_linear" x1="77.3708" y1="24.7109" x2="71.213" y2="17.3195" gradientUnits="userSpaceOnUse">
<stop stop-color="#FFDA2D"/>
<stop offset="1" stop-color="#FDBF00"/>
</linearGradient>
<clipPath id="clip0">
<rect width="80" height="80" fill="white"/>
</clipPath>
</defs>
</svg>
