<svg width="80" height="80" viewBox="0 0 80 80" fill="none" xmlns="http://www.w3.org/2000/svg">
<g clip-path="url(#clip0)">
<path d="M50.9763 22.3089C50.9763 25.3639 49.6519 28.1107 47.5457 30.005C46.369 31.0646 45.6884 32.5672 45.6884 34.1518V35.078H35.5649V34.1518C35.5649 32.5833 34.9099 31.0775 33.7396 30.0339C31.6398 28.1605 30.309 25.4458 30.2768 22.4197C30.219 16.7913 34.7477 12.0957 40.3762 11.9624C46.2068 11.826 50.9763 16.5102 50.9763 22.3089Z" fill="#F9CE55"/>
<path d="M23.1644 41.1086L28.2018 54.9486C30.5104 61.2911 27.2387 68.3072 20.8943 70.6163C19.1949 71.2349 17.4488 71.4524 15.7572 71.3189L15.7566 71.3172C11.6638 70.9941 7.89287 68.6107 5.90834 64.8466C5.33334 64.853 4.74819 64.735 4.18991 64.4746C2.21663 63.556 1.36272 61.2097 2.28381 59.2375C3.20178 57.2624 5.54991 56.4077 7.52459 57.33L6.47631 51.4477L5.76303 47.4419L23.1644 41.1086Z" fill="#FCD2BE"/>
<path d="M15.7564 71.317C11.6636 70.9939 7.89263 68.6104 5.9081 64.8464C5.3331 64.8528 4.74794 64.7348 4.18966 64.4743C2.21638 63.5557 1.36247 61.2095 2.28357 59.2373C3.20154 57.2622 5.54966 56.4075 7.52435 57.3298L6.47607 51.4475L9.72372 50.9608C9.25185 53.6218 6.80185 63.6004 15.7564 71.317Z" fill="#FAB998"/>
<path d="M26.4964 33.5532C28.503 39.0661 25.6595 45.1607 20.1483 47.1665L9.72361 50.9607L10.0608 51.8871C10.8628 54.0908 9.72564 56.5266 7.52189 57.3287C6.06627 56.6499 4.40596 56.9376 3.26783 57.9271L1.78393 53.8504C-0.222011 48.3393 2.6208 42.2429 8.13205 40.2371L26.4964 33.5532Z" fill="#F9CE55"/>
<path d="M16.2778 37.2724L8.13185 40.2372C2.62076 42.2432 -0.222057 48.3396 1.78372 53.8505L3.26763 57.9272C4.4056 56.9377 6.06607 56.6501 7.52169 57.3288C9.72544 56.5268 10.8628 54.091 10.0606 51.8872L9.72341 50.9608L9.92966 50.8857C7.92404 45.3747 10.7669 39.2783 16.2778 37.2724Z" fill="#E2A11E"/>
<path d="M17.4213 57.0369C16.9295 57.0369 16.4678 56.7334 16.2898 56.2445L15.5982 54.3444C15.3707 53.7196 15.6931 53.0287 16.3178 52.8012C16.9432 52.5734 17.6335 52.896 17.861 53.5209L18.5526 55.4209C18.7801 56.0457 18.4578 56.7366 17.8331 56.9641C17.697 57.0135 17.5578 57.0369 17.4213 57.0369Z" fill="#50515B"/>
<path d="M22.3613 55.239C21.8694 55.239 21.4077 54.9354 21.2297 54.4465L20.5382 52.5465C20.3107 51.9217 20.633 51.2308 21.2577 51.0033C21.8832 50.7756 22.5736 51.0981 22.801 51.7229L23.4925 53.6229C23.72 54.2478 23.3977 54.9387 22.773 55.1662C22.6371 55.2156 22.4979 55.239 22.3613 55.239Z" fill="#50515B"/>
<path d="M18.9291 65.7682C17.3185 65.7682 15.8554 65.2364 14.6149 64.1863C14.1074 63.7568 14.0443 62.9969 14.4741 62.4894C14.9036 61.9821 15.6633 61.9186 16.171 62.3486C17.3861 63.3775 18.9149 63.6214 20.7157 63.073C21.3522 62.8791 22.0246 63.2377 22.2183 63.8739C22.4121 64.51 22.0536 65.1828 21.4174 65.3766C20.5582 65.6382 19.7255 65.7682 18.9291 65.7682Z" fill="white"/>
<path d="M65.697 80C65.697 80 65.6801 79.9853 65.6485 79.955C65.1413 79.4613 60.7973 74.9827 63.2291 68.3014L52.094 44.7984C52.3763 41.4878 54.554 36.2841 62.2598 38.3984C62.7402 38.5289 63.2421 38.6894 63.7656 38.8798C72.6976 42.1309 81.2009 46.0389 78.2699 59.8608C76.3084 69.1088 69.974 76.4813 65.697 80Z" fill="#6B4B3D"/>
<path d="M65.697 80C65.697 80 65.6801 79.9853 65.6486 79.955C65.6511 79.9527 65.6523 79.9496 65.6534 79.9466C78.0047 55.3994 70.0111 41.2197 62.2601 38.3986C62.7406 38.5291 63.2425 38.6896 63.7659 38.88C72.6979 42.1311 81.2012 46.0391 78.2703 59.861C76.3084 69.1088 69.974 76.4813 65.697 80Z" fill="#5B3D2D"/>
<path d="M70.9848 62.5285C70.4698 62.7687 69.9301 62.8776 69.3997 62.8717C67.2299 66.9871 62.7469 69.3142 58.1962 68.8068C57.3204 68.7115 56.4419 68.5081 55.5774 68.1934C49.7257 66.0635 46.708 59.5923 48.8374 53.7424L52.0929 44.7979C52.0929 44.7979 56.7287 46.676 59.2574 45.4968C60.6774 49.9703 63.9973 51.7303 66.3716 52.4228C66.3723 52.421 66.3722 52.421 66.3722 52.421C67.8927 52.8639 69.026 52.8698 69.026 52.8698L67.909 55.939L67.9112 55.9379C69.2537 55.3118 70.7852 55.5773 71.8349 56.4899C72.208 56.8128 72.5196 57.2203 72.7426 57.6982C73.5926 59.5173 72.8049 61.6814 70.9848 62.5285Z" fill="#FCD2BE"/>
<path d="M70.9847 62.5286C70.4697 62.7687 69.9301 62.8776 69.3997 62.8717C67.2299 66.9872 62.7469 69.3142 58.1962 68.8069C64.7976 67.7911 66.3508 52.6272 66.3716 52.4228C66.3722 52.4211 66.3722 52.4211 66.3722 52.4211C67.8927 52.8639 69.0262 52.8698 69.0262 52.8698L67.9091 55.9391L67.9113 55.938C69.2538 55.3119 70.7854 55.5773 71.8351 56.49C72.2082 56.8128 72.5197 57.2203 72.7427 57.6983C73.5925 59.5173 72.8049 61.6814 70.9847 62.5286Z" fill="#FAB998"/>
<path d="M58.7821 55.7625C58.6454 55.7625 58.5065 55.739 58.3707 55.6896C57.7457 55.4621 57.4237 54.7714 57.651 54.1464L58.2888 52.394C58.5162 51.7692 59.207 51.4468 59.832 51.6743C60.457 51.9018 60.779 52.5926 60.5517 53.2176L59.9138 54.97C59.7359 55.4587 59.2742 55.7625 58.7821 55.7625Z" fill="#50515B"/>
<path d="M54.2258 54.1042C54.0891 54.1042 53.95 54.0808 53.8143 54.0314C53.1893 53.8039 52.8672 53.113 53.0947 52.4881L53.7327 50.7356C53.96 50.1108 54.6511 49.7886 55.276 50.0161C55.9008 50.2436 56.223 50.9345 55.9955 51.5594L55.3575 53.3119C55.1796 53.8006 54.7177 54.1042 54.2258 54.1042Z" fill="#50515B"/>
<path d="M57.3922 63.8161C56.6482 63.8161 55.8707 63.6947 55.0685 63.4502C54.4322 63.2564 54.0738 62.5838 54.2675 61.9475C54.4613 61.3113 55.1346 60.9527 55.7702 61.1466C57.3986 61.6425 58.7791 61.4239 59.8741 60.4966C60.3818 60.0667 61.1416 60.1298 61.571 60.6374C62.0007 61.1449 61.9377 61.9047 61.4302 62.3342C60.2688 63.3181 58.899 63.8161 57.3922 63.8161Z" fill="white"/>
<path d="M45.2821 40.054H35.971C35.3059 40.054 34.767 39.5149 34.767 38.8499C34.767 38.1849 35.3059 37.6458 35.971 37.6458H45.2821C45.9473 37.6458 46.4862 38.1849 46.4862 38.8499C46.4862 39.5149 45.9473 40.054 45.2821 40.054Z" fill="#50515B"/>
<path d="M44.3187 43.9068H36.934C36.2689 43.9068 35.73 43.3677 35.73 42.7027C35.73 42.0377 36.2689 41.4987 36.934 41.4987H44.3187C44.9839 41.4987 45.5228 42.0377 45.5228 42.7027C45.5228 43.3677 44.9839 43.9068 44.3187 43.9068Z" fill="#50515B"/>
<path d="M40.3858 8.10172C39.7207 8.10172 39.1818 7.56266 39.1818 6.89766V1.20406C39.1818 0.539062 39.7207 0 40.3858 0C41.051 0 41.5899 0.539062 41.5899 1.20406V6.89781C41.5899 7.56266 41.051 8.10172 40.3858 8.10172Z" fill="#F9CE55"/>
<path d="M61.5337 23.5561H55.8399C55.1748 23.5561 54.6359 23.017 54.6359 22.352C54.6359 21.687 55.1748 21.1479 55.8399 21.1479H61.5337C62.1988 21.1479 62.7377 21.687 62.7377 22.352C62.7377 23.017 62.1987 23.5561 61.5337 23.5561Z" fill="#F9CE55"/>
<path d="M25.092 23.5561H19.3983C18.7331 23.5561 18.1942 23.017 18.1942 22.352C18.1942 21.687 18.7331 21.1479 19.3983 21.1479H25.092C25.7572 21.1479 26.2961 21.687 26.2961 22.352C26.2959 23.017 25.7569 23.5561 25.092 23.5561Z" fill="#F9CE55"/>
<path d="M29.5951 12.6852C29.287 12.6852 28.9789 12.5677 28.7435 12.3325L24.7176 8.30625C24.2475 7.83609 24.2475 7.07359 24.7176 6.60359C25.1879 6.13344 25.9503 6.13344 26.4204 6.60359L30.4465 10.6297C30.9167 11.0998 30.9167 11.8623 30.4465 12.3323C30.2114 12.5675 29.9032 12.6852 29.5951 12.6852Z" fill="#F9CE55"/>
<path d="M51.3371 12.6852C51.029 12.6852 50.7208 12.5677 50.4857 12.3326C50.0155 11.8624 50.0155 11.0999 50.4857 10.6299L54.5118 6.60384C54.9821 6.13368 55.7444 6.13368 56.2146 6.60384C56.6847 7.07399 56.6847 7.83649 56.2146 8.30649L52.1886 12.3326C51.9533 12.5676 51.6451 12.6852 51.3371 12.6852Z" fill="#F9CE55"/>
<path d="M46.1652 21.5127C46.1652 24.1519 44.3079 26.3656 41.8307 26.9163V35.078H39.4225V26.9163C36.9455 26.3656 35.088 24.1519 35.088 21.5127C35.088 20.8464 35.6274 20.3086 36.2921 20.3086C36.9568 20.3086 37.4961 20.8464 37.4961 21.5127C37.4961 23.2384 38.9008 24.6431 40.6266 24.6431C42.3524 24.6431 43.7571 23.2384 43.7571 21.5127C43.7571 20.8464 44.2965 20.3086 44.9612 20.3086C45.6258 20.3086 46.1652 20.8462 46.1652 21.5127Z" fill="#E2A11E"/>
</g>
<defs>
<clipPath id="clip0">
<rect width="80" height="80" fill="white"/>
</clipPath>
</defs>
</svg>
